<?xml version="1.0" encoding="utf-8"?>
<!-- Generator: Adobe Illustrator 21.0.0, SVG Export Plug-In . SVG Version: 6.00 Build 0)  -->
<svg version="1.1" id="Calque_1" xmlns="http://www.w3.org/2000/svg" xmlns:xlink="http://www.w3.org/1999/xlink" x="0px" y="0px"
	 viewBox="0 0 800 800" style="enable-background:new 0 0 800 800;" xml:space="preserve">
<style type="text/css">
	.st0{fill:#EF4679;}
	.st1{fill:#332E55;}
</style>
<g>
	<g>
		<path class="st0" d="M305.1,644.2c0.8,13.6,9.9,24.5,22,28.1c11.6-5.3,19.4-16.8,18.7-30.4c-0.8-13.6-9.9-24.5-22-28.1
			C312.1,618.7,304.7,630.6,305.1,644.2z"/>
		<path class="st0" d="M588.4,628c0.8,13.6,9.9,24.5,22,28.1c11.6-5.3,19.4-16.8,18.7-30.4c-0.8-13.6-9.9-24.5-22-28.1
			C595.4,602.5,587.6,614.4,588.4,628z"/>
		<polygon class="st0" points="250,327.9 317,547.9 599.4,531.7 640.4,305.5 		"/>
	</g>
	<path class="st0" d="M439.2,278.4c21-19,33.4-47.4,31.7-77.9s-17.3-57.2-40.3-73.7c-41.5,2.8-73,38.6-70.6,80.1
		S397.7,280.3,439.2,278.4z"/>
	<path class="st1" d="M116.9,281.1c0.4,6.8,6.2,11.5,12.5,11.2l87.2-5c5.5-0.3,10.4,3.2,11.9,8.2L285,481.3l21,70.2l0,0l15.2,51
		c-17,6.5-28.8,23.3-27.7,42.4c1.4,23.7,21.5,41.7,45.2,40.3s41.7-21.5,40.3-45.2c-0.4-7.2-2.5-13.5-5.8-19.2l207.1-11.9
		c-2.6,6.1-3.9,13-3.5,19.7c1.4,23.7,21.5,41.7,45.2,40.3s41.7-21.5,40.3-45.2s-21.5-41.7-45.2-40.3L345,599l-12.1-40.1L631,541.8
		c5.5-0.3,9.9-4.4,10.9-9.5l41-226.2c0.6-3.9-0.4-7.2-2.7-10c-2.3-2.8-6.2-4.3-9.6-4.1L259,315.6l-8.3-26.7
		c-4.7-15.9-19.3-26.1-35.9-25.1l-87.2,5C121.3,268.9,116.5,274.3,116.9,281.1z M633.8,442.7l-331.1,19L288,412.8l354.8-20.3
		L633.8,442.7z M657.2,316l-9.7,52.8l-365.9,20.9l-15.7-51.4L657.2,316z M325.2,535.5L310,485l319.7-18.3l-9.3,51.9L325.2,535.5z
		 M618.6,606.7c11-0.6,20,7.8,20.6,18.4c0.6,11-7.8,20-18.4,20.6c-11,0.6-20-7.8-20.6-18.4C599.6,616.7,607.6,607.3,618.6,606.7z
		 M335.3,622.9c11-0.6,20,7.8,20.6,18.4c0.6,11-7.8,20-18.4,20.6c-11,0.6-20-7.8-20.6-18.4C316.3,632.9,324.7,623.5,335.3,622.9z"/>
	<path class="st1" d="M523.8,197.5c-2.8-48.3-44.4-85.4-92.7-82.6c-48.3,2.8-85.4,44.4-82.6,92.7s44.4,85.4,92.7,82.6
		C489.4,287.4,526.5,245.8,523.8,197.5z M500.5,198.8c2,35.6-25.1,66-60.7,68s-66-25.1-68-60.7s25.1-66,60.7-68
		C467.6,136.1,498,163.3,500.5,198.8z"/>
	<path class="st1" d="M474.9,211.7c6.8-0.4,11.6-5.8,11.2-12.5c-0.4-6.8-6.2-11.5-12.5-11.2l-76.6,4.4c-6.8,0.4-11.6,5.8-11.2,12.5
		c0.4,6.8,6.2,11.5,12.5,11.2L474.9,211.7z"/>
</g>
</svg>
